<svg xmlns="http://www.w3.org/2000/svg" version="1.1" xmlns:xlink="http://www.w3.org/1999/xlink" xmlns:svgjs="http://svgjs.dev/svgjs" width="2000" height="1999" viewBox="0 0 2000 1999"><g transform="matrix(1,0,0,1,-0.431486880466764,-0.4312711370263287)"><svg viewBox="0 0 343 343" data-background-color="#d2d6dc" preserveAspectRatio="xMidYMid meet" height="1999" width="2000" xmlns="http://www.w3.org/2000/svg" xmlns:xlink="http://www.w3.org/1999/xlink"><g id="tight-bounds" transform="matrix(1,0,0,1,0.0740000000000407,0.07400000000001228)"><svg viewBox="0 0 342.85155851775386 342.85155851775386" height="342.85155851775386" width="342.85155851775386"><g><svg></svg></g><g><svg viewBox="0 0 342.85155851775386 342.85155851775386" height="342.85155851775386" width="342.85155851775386"><g><path d="M0 171.426c0-94.676 76.75-171.426 171.426-171.426 94.676 0 171.426 76.75 171.426 171.426 0 94.676-76.75 171.426-171.426 171.426-94.676 0-171.426-76.75-171.426-171.426zM171.426 333.601c89.567 0 162.175-72.608 162.175-162.175 0-89.567-72.608-162.175-162.175-162.175-89.567 0-162.175 72.608-162.175 162.175 0 89.567 72.608 162.175 162.175 162.175z" data-fill-palette-color="tertiary" fill="#2f333a" stroke="transparent"></path><ellipse rx="164.56874808852186" ry="164.56874808852186" cx="171.42577925887693" cy="171.42577925887693" fill="#2f333a" stroke="transparent" stroke-width="0" fill-opacity="1" data-fill-palette-color="tertiary"></ellipse></g><g transform="matrix(1,0,0,1,64.84655864529837,120.13452933859224)"><svg viewBox="0 0 213.1584412271571 102.58249984056935" height="102.58249984056935" width="213.1584412271571"><g><svg viewBox="0 0 213.1584412271571 102.58249984056935" height="102.58249984056935" width="213.1584412271571"><g><svg viewBox="0 0 213.1584412271571 102.58249984056935" height="102.58249984056935" width="213.1584412271571"><g><svg viewBox="0 0 213.1584412271571 102.58249984056935" height="102.58249984056935" width="213.1584412271571"><g id="textblocktransform"><svg viewBox="0 0 213.1584412271571 102.58249984056935" height="102.58249984056935" width="213.1584412271571" id="textblock"><g><svg viewBox="0 0 213.1584412271571 102.58249984056935" height="102.58249984056935" width="213.1584412271571"><g transform="matrix(1,0,0,1,0,0)"><svg width="213.1584412271571" viewBox="0.73 -29.98 62.5 30.080000000000002" height="102.58249984056935" data-palette-color="#c6cad1"><path d="M0.73-4.27Q0.73-5.18 1.49-5.88 2.25-6.59 2.66-6.86 3.08-7.13 3.22-7.28L3.22-7.28Q3.47-2.83 9.23-2.83L9.23-2.83Q13.77-2.83 19.82-5.66L19.82-5.66Q24.12-7.62 25.59-9.67L25.59-9.67Q26.07-10.3 26.07-10.72 26.07-11.13 25.93-11.38L25.93-11.38 5.66-15.92Q4.79-16.11 3.96-16.75L3.96-16.75Q2.44-17.82 2.44-18.7L2.44-18.7Q2.44-22.07 7.23-24.8L7.23-24.8Q12.5-27.78 21.34-29.3L21.34-29.3Q23.34-29.64 24.32-29.69L24.32-29.69Q24.61-29.59 25.22-29.52 25.83-29.44 26.46-29.3L26.46-29.3Q27.98-28.96 27.73-28.03L27.73-28.03Q27.73-26.37 21.39-25.39L21.39-25.39Q13.18-24.17 11.16-23.34 9.13-22.51 8.23-21.63 7.32-20.75 7.28-19.53L7.28-19.53Q7.28-19.29 8.4-18.99 9.52-18.7 11.08-18.29 12.65-17.87 15.14-17.19L15.14-17.19Q21.19-15.53 29.98-12.99L29.98-12.99Q30.47-11.91 30.47-10.99L30.47-10.99Q30.47-8.4 27.44-6.01L27.44-6.01Q24.02-3.32 17.97-1.46L17.97-1.46Q12.94 0.05 9.96 0.05L9.96 0.05Q7.47 0.05 5.22-0.83 2.98-1.71 1.86-2.54 0.73-3.37 0.73-4.27ZM36.18 0.1L36.18 0.1 33.98 0 33.98-11.38Q34.23-15.04 34.37-17.87 34.52-20.7 34.91-22.75 35.3-24.8 36.18-26.2 37.06-27.59 38.82-28.42L38.82-28.42Q41.99-29.98 50.49-29.98L50.49-29.98Q54.15-29.98 56.69-29.27 59.23-28.56 60.45-27.93L60.45-27.93Q63.23-26.56 63.23-24.12 63.23-21.68 61.84-19.7 60.45-17.72 58.23-16.28 56-14.84 53.22-13.92 50.44-12.99 47.65-12.4L47.65-12.4Q42.67-11.43 38.08-11.43L38.08-11.43 37.89-0.49Q37.89 0.1 36.18 0.1ZM38.03-16.94L38.03-16.94Q38.03-14.5 40.13-14.5L40.13-14.5Q40.43-14.5 41.16-14.53 41.89-14.55 43.72-14.67 45.55-14.79 47.6-15.16 49.66-15.53 51.73-16.11 53.81-16.7 55.47-17.58L55.47-17.58Q59.23-19.63 59.23-22.8L59.23-22.8Q58.49-25.98 53.42-26.86L53.42-26.86Q51.9-27.15 50.71-27.15 49.51-27.15 47.87-27.03 46.24-26.9 44.09-26.27 41.94-25.63 40.48-24.56 39.01-23.49 38.86-22.07L38.86-22.07Q38.82-21.48 38.62-20.7L38.62-20.7Q38.03-18.21 38.03-16.94Z" opacity="1" transform="matrix(1,0,0,1,0,0)" fill="#c6cad1" class="wordmark-text-0" data-fill-palette-color="quaternary" id="text-0"></path></svg></g></svg></g></svg></g></svg></g><g></g></svg></g></svg></g></svg></g></svg></g><defs></defs></svg><rect width="342.85155851775386" height="342.85155851775386" fill="none" stroke="none" visibility="hidden"></rect></g></svg></g></svg>